<svg width="30" height="31" viewBox="0 0 30 31" fill="none" xmlns="http://www.w3.org/2000/svg">
<rect x="0.0332031" y="0.181885" width="29.03" height="29.97" rx="6" fill="#EBEAFF"/>
<path d="M18.2112 8.18188H11.4308C9.55838 8.18188 8.04053 9.80666 8.04053 11.8109V19.069C8.04053 21.0732 9.55838 22.698 11.4308 22.698H18.2112C20.0836 22.698 21.6014 21.0732 21.6014 19.069V11.8109C21.6014 9.80666 20.0836 8.18188 18.2112 8.18188Z" stroke="#0A0A0B" stroke-width="2" stroke-linecap="round" stroke-linejoin="round"/>
<path d="M16.7374 15.0847C16.7971 15.5881 16.7283 16.1022 16.5406 16.5539C16.353 17.0056 16.056 17.3719 15.692 17.6007C15.3281 17.8295 14.9156 17.9091 14.5133 17.8282C14.111 17.7474 13.7393 17.5102 13.4512 17.1504C13.1631 16.7905 12.9731 16.3264 12.9084 15.824C12.8437 15.3216 12.9074 14.8064 13.0906 14.3519C13.2738 13.8974 13.5671 13.5265 13.9288 13.2921C14.2905 13.0578 14.7022 12.9718 15.1052 13.0464C15.5164 13.1226 15.897 13.3618 16.1909 13.7289C16.4848 14.0959 16.6764 14.5713 16.7374 15.0847Z" stroke="#0A0A0B" stroke-width="2" stroke-linecap="round" stroke-linejoin="round"/>
</svg>
