<svg width="31" height="31" viewBox="0 0 31 31" fill="none" xmlns="http://www.w3.org/2000/svg">
<rect x="0.0932617" y="0.181885" width="29.97" height="29.97" rx="6" fill="#EBEAFF"/>
<path d="M17.0933 12.1819C18.4193 12.1819 19.6911 12.6681 20.6288 13.5337C21.5665 14.3993 22.0933 15.5732 22.0933 16.7973V22.1819H18.7599V16.7973C18.7599 16.3892 18.5843 15.9979 18.2718 15.7094C17.9592 15.4209 17.5353 15.2588 17.0933 15.2588C16.6512 15.2588 16.2273 15.4209 15.9148 15.7094C15.6022 15.9979 15.4266 16.3892 15.4266 16.7973V22.1819H12.0933V16.7973C12.0933 15.5732 12.62 14.3993 13.5577 13.5337C14.4954 12.6681 15.7672 12.1819 17.0933 12.1819Z" stroke="#0A0A0B" stroke-width="2" stroke-linecap="round" stroke-linejoin="round"/>
<path d="M9.09326 13.1819H7.09326V22.1819H9.09326V13.1819Z" stroke="#0A0A0B" stroke-width="2" stroke-linecap="round" stroke-linejoin="round"/>
<path d="M8.09326 10.1819C8.64555 10.1819 9.09326 9.73417 9.09326 9.18188C9.09326 8.6296 8.64555 8.18188 8.09326 8.18188C7.54098 8.18188 7.09326 8.6296 7.09326 9.18188C7.09326 9.73417 7.54098 10.1819 8.09326 10.1819Z" stroke="#0A0A0B" stroke-width="2" stroke-linecap="round" stroke-linejoin="round"/>
</svg>
