<svg width="30" height="31" viewBox="0 0 30 31" fill="none" xmlns="http://www.w3.org/2000/svg">
<rect x="0.0634766" y="0.151367" width="29.03" height="30.031" rx="6" fill="#EBEAFF"/>
<path d="M22.5295 8.15897C21.8971 8.66946 21.1968 9.0599 20.4558 9.31526C20.058 8.79191 19.5294 8.42098 18.9414 8.25262C18.3534 8.08427 17.7345 8.12662 17.1682 8.37394C16.6019 8.62127 16.1157 9.06163 15.7753 9.63548C15.4348 10.2093 15.2566 10.889 15.2648 11.5825V12.3383C14.1041 12.3727 12.9541 12.0781 11.917 11.4808C10.88 10.8835 9.98811 10.002 9.32087 8.91471C9.32087 8.91471 6.67913 15.7164 12.623 18.7394C11.2629 19.7959 9.6426 20.3257 8 20.2509C13.9439 24.0297 21.2087 20.2509 21.2087 11.5598C21.2081 11.3493 21.1904 11.1393 21.1558 10.9326C21.8299 10.1719 22.3055 9.21151 22.5295 8.15897Z" stroke="#0A0A0B" stroke-width="2" stroke-linecap="round" stroke-linejoin="round"/>
</svg>
