<svg width="30" height="30" viewBox="0 0 30 30" fill="none" xmlns="http://www.w3.org/2000/svg">
<path d="M13.0173 21.5166L23.0048 11.5291L21.0215 9.54581L13.0173 17.55L8.97982 13.5125L6.99648 15.4958L13.0173 21.5166ZM15.0007 29.1666C13.0409 29.1666 11.1993 28.7948 9.47565 28.051C7.75204 27.3073 6.25273 26.2979 4.97773 25.0229C3.70273 23.7479 2.69336 22.2486 1.94961 20.525C1.20586 18.8014 0.833984 16.9597 0.833984 15C0.833984 13.0403 1.20586 11.1986 1.94961 9.47498C2.69336 7.75137 3.70273 6.25206 4.97773 4.97706C6.25273 3.70206 7.75204 2.69269 9.47565 1.94894C11.1993 1.20519 13.0409 0.833313 15.0007 0.833313C16.9604 0.833313 18.802 1.20519 20.5257 1.94894C22.2493 2.69269 23.7486 3.70206 25.0236 4.97706C26.2986 6.25206 27.3079 7.75137 28.0517 9.47498C28.7954 11.1986 29.1673 13.0403 29.1673 15C29.1673 16.9597 28.7954 18.8014 28.0517 20.525C27.3079 22.2486 26.2986 23.7479 25.0236 25.0229C23.7486 26.2979 22.2493 27.3073 20.5257 28.051C18.802 28.7948 16.9604 29.1666 15.0007 29.1666ZM15.0007 26.3333C18.1645 26.3333 20.8444 25.2354 23.0402 23.0396C25.2361 20.8437 26.334 18.1639 26.334 15C26.334 11.8361 25.2361 9.15623 23.0402 6.9604C20.8444 4.76456 18.1645 3.66665 15.0007 3.66665C11.8368 3.66665 9.1569 4.76456 6.96107 6.9604C4.76523 9.15623 3.66732 11.8361 3.66732 15C3.66732 18.1639 4.76523 20.8437 6.96107 23.0396C9.1569 25.2354 11.8368 26.3333 15.0007 26.3333Z" fill="#5BD3C5"/>
</svg>
