<svg width="20" height="14" viewBox="0 0 20 14" fill="none" xmlns="http://www.w3.org/2000/svg">
<path d="M19.0711 6.74688C19.0437 6.68516 18.382 5.21719 16.9109 3.74609C14.9508 1.78594 12.475 0.75 9.74999 0.75C7.02499 0.75 4.54921 1.78594 2.58905 3.74609C1.11796 5.21719 0.453118 6.6875 0.428899 6.74688C0.393362 6.82681 0.375 6.91331 0.375 7.00078C0.375 7.08826 0.393362 7.17476 0.428899 7.25469C0.456243 7.31641 1.11796 8.78359 2.58905 10.2547C4.54921 12.2141 7.02499 13.25 9.74999 13.25C12.475 13.25 14.9508 12.2141 16.9109 10.2547C18.382 8.78359 19.0437 7.31641 19.0711 7.25469C19.1066 7.17476 19.125 7.08826 19.125 7.00078C19.125 6.91331 19.1066 6.82681 19.0711 6.74688ZM9.74999 12C7.3453 12 5.24452 11.1258 3.50546 9.40234C2.79193 8.69271 2.18485 7.88354 1.70312 7C2.18467 6.11634 2.79176 5.30715 3.50546 4.59766C5.24452 2.87422 7.3453 2 9.74999 2C12.1547 2 14.2555 2.87422 15.9945 4.59766C16.7094 5.30703 17.3178 6.11621 17.8008 7C17.2375 8.05156 14.7836 12 9.74999 12ZM9.74999 3.25C9.00831 3.25 8.28329 3.46993 7.6666 3.88199C7.04992 4.29404 6.56927 4.87971 6.28544 5.56494C6.00162 6.25016 5.92735 7.00416 6.07205 7.73159C6.21674 8.45902 6.57389 9.1272 7.09834 9.65165C7.62279 10.1761 8.29097 10.5333 9.0184 10.6779C9.74583 10.8226 10.4998 10.7484 11.1851 10.4645C11.8703 10.1807 12.4559 9.70007 12.868 9.08339C13.2801 8.4667 13.5 7.74168 13.5 7C13.499 6.00576 13.1035 5.05253 12.4005 4.34949C11.6975 3.64645 10.7442 3.25103 9.74999 3.25ZM9.74999 9.5C9.25554 9.5 8.77219 9.35338 8.36107 9.07867C7.94994 8.80397 7.62951 8.41352 7.44029 7.95671C7.25107 7.49989 7.20157 6.99723 7.29803 6.51227C7.39449 6.02732 7.63259 5.58186 7.98222 5.23223C8.33186 4.8826 8.77731 4.6445 9.26227 4.54804C9.74722 4.45157 10.2499 4.50108 10.7067 4.6903C11.1635 4.87952 11.554 5.19995 11.8287 5.61107C12.1034 6.0222 12.25 6.50555 12.25 7C12.25 7.66304 11.9866 8.29893 11.5178 8.76777C11.0489 9.23661 10.413 9.5 9.74999 9.5Z" fill="#B7B7B7"/>
</svg>
