<svg width="16" height="14" viewBox="0 0 16 14" fill="none" xmlns="http://www.w3.org/2000/svg">
<path d="M5.31801 12.4706L6.09401 11.6946C6.70866 11.8988 7.35232 12.0022 8.00001 12.0006C9.99901 12.0006 11.74 11.0446 13.225 9.41363C13.8892 8.68238 14.4605 7.87191 14.926 7.00063C14.4605 6.12935 13.8892 5.31889 13.225 4.58763L13.214 4.57563L13.921 3.86763C15.28 5.34363 15.966 6.84363 15.979 6.87363C15.993 6.9043 16 6.93697 16 6.97163V7.03163C16.0002 7.065 15.9933 7.09804 15.98 7.12863C15.952 7.18863 13.291 13.0006 8.00001 13.0006C7.07986 13.002 6.16849 12.8219 5.31801 12.4706ZM2.04001 10.0926C0.707009 8.62963 0.0340089 7.15863 0.0200089 7.12863C0.00653373 7.09773 -0.000280902 7.06434 8.868e-06 7.03063V6.97163C8.868e-06 6.93697 0.00667553 6.9043 0.0200089 6.87363C0.0480089 6.81363 2.70901 1.00063 8.00001 1.00063C8.96201 1.00063 9.83701 1.19263 10.625 1.50763L9.84501 2.28763C9.24875 2.09627 8.62622 1.99943 8.00001 2.00063C6.00001 2.00063 4.26001 2.95663 2.77501 4.58763C2.11078 5.3192 1.53946 6.13 1.07401 7.00163C1.5332 7.86098 2.09533 8.6612 2.74801 9.38463L2.04001 10.0926ZM8.36201 3.77063L7.25501 4.87763C6.93707 4.98997 6.64829 5.17203 6.40985 5.41047C6.17141 5.64891 5.98935 5.93769 5.87701 6.25563L4.77001 7.36263C4.71601 6.87778 4.77178 6.38699 4.9332 5.92662C5.09462 5.46625 5.35755 5.0481 5.70251 4.70313C6.04747 4.35817 6.46563 4.09524 6.926 3.93382C7.38637 3.7724 7.87716 3.71663 8.36201 3.77063ZM11.222 6.56763C11.24 6.70963 11.2493 6.85397 11.25 7.00063C11.2494 7.4638 11.1498 7.92149 10.9581 8.3431C10.7664 8.76472 10.4868 9.14054 10.1382 9.44545C9.78953 9.75037 9.37981 9.97733 8.93641 10.1112C8.493 10.245 8.02613 10.2827 7.56701 10.2216L8.62801 9.16163C8.99154 9.05507 9.32246 8.85883 9.59033 8.59095C9.8582 8.32308 10.0544 7.99217 10.161 7.62863L11.222 6.56763ZM1.85401 13.8546C1.80752 13.9011 1.75233 13.938 1.69159 13.9632C1.63085 13.9883 1.56575 14.0013 1.50001 14.0013C1.43426 14.0013 1.36916 13.9883 1.30843 13.9632C1.24769 13.938 1.1925 13.9011 1.14601 13.8546C1.09952 13.8081 1.06264 13.753 1.03749 13.6922C1.01233 13.6315 0.999377 13.5664 0.999377 13.5006C0.999377 13.4349 1.01233 13.3698 1.03749 13.309C1.06264 13.2483 1.09952 13.1931 1.14601 13.1466L14.146 0.146632C14.1925 0.100144 14.2477 0.0632674 14.3084 0.0381083C14.3692 0.0129492 14.4343 0 14.5 0C14.5658 0 14.6309 0.0129492 14.6916 0.0381083C14.7523 0.0632674 14.8075 0.100144 14.854 0.146632C14.9005 0.19312 14.9374 0.248309 14.9625 0.309048C14.9877 0.369788 15.0006 0.434888 15.0006 0.500632C15.0006 0.566375 14.9877 0.631476 14.9625 0.692215C14.9374 0.752954 14.9005 0.808144 14.854 0.854632L1.85401 13.8546Z" fill="black"/>
</svg>
