<svg width="60" height="60" viewBox="0 0 60 60" fill="none" xmlns="http://www.w3.org/2000/svg">
<path d="M46.3477 25.8681C47.1484 27.5347 47.7441 29.2708 48.1348 31.0764C48.5254 32.8819 48.7305 34.7454 48.75 36.6667V40.2431L30 51.3889L11.25 40.2431C11.25 38.8542 11.2598 37.5579 11.2793 36.3542C11.2988 35.1505 11.3867 33.9815 11.543 32.8472C11.6992 31.713 11.9336 30.5787 12.2461 29.4444C12.5586 28.3102 13.0273 27.1181 13.6523 25.8681L7.5 22.2222V42.6042C8.06641 42.8357 8.57422 43.1597 9.02344 43.5764C9.47266 43.9931 9.87305 44.4792 10.2246 45.0347C10.5762 45.5903 10.8301 46.1921 10.9863 46.8403C11.1426 47.4884 11.2305 48.1713 11.25 48.8889V60H0V48.8889C0 48.1944 0.0878906 47.5232 0.263672 46.875C0.439453 46.2269 0.693359 45.6134 1.02539 45.0347C1.35742 44.456 1.74805 43.9699 2.19727 43.5764C2.64648 43.1829 3.16406 42.8588 3.75 42.6042V20L0 17.7778L30 0L60 17.7778L46.3477 25.8681ZM7.5 48.8889C7.5 48.287 7.31445 47.7662 6.94336 47.3264C6.57227 46.8866 6.13281 46.6667 5.625 46.6667C5.11719 46.6667 4.67773 46.8866 4.30664 47.3264C3.93555 47.7662 3.75 48.287 3.75 48.8889V55.5556H7.5V48.8889ZM8.37891 17.7778L30 30.5903L51.6211 17.7778L30 4.96528L8.37891 17.7778ZM45 37.5C45 35.7176 44.8535 34.0625 44.5605 32.5347C44.2676 31.0069 43.75 29.4444 43.0078 27.8472L30 35.5556L16.9922 27.8472C16.3477 29.1898 15.8594 30.6019 15.5273 32.0833C15.1953 33.5648 15.0195 35.0926 15 36.6667V37.5L30 46.3889L45 37.5Z" fill="white"/>
</svg>
