<svg width="16" height="19" viewBox="0 0 16 19" fill="none" xmlns="http://www.w3.org/2000/svg">
<path d="M9.5 12C9.5 12.3978 9.34196 12.7794 9.06066 13.0607C8.77936 13.342 8.39782 13.5 8 13.5C7.60218 13.5 7.22064 13.342 6.93934 13.0607C6.65804 12.7794 6.5 12.3978 6.5 12C6.5 11.6022 6.65804 11.2206 6.93934 10.9393C7.22064 10.658 7.60218 10.5 8 10.5C8.39782 10.5 8.77936 10.658 9.06066 10.9393C9.34196 11.2206 9.5 11.6022 9.5 12ZM4 5V4C4 2.93913 4.42143 1.92172 5.17157 1.17157C5.92172 0.421427 6.93913 0 8 0C9.06087 0 10.0783 0.421427 10.8284 1.17157C11.5786 1.92172 12 2.93913 12 4V5H12.875C13.7038 5 14.4987 5.32924 15.0847 5.91529C15.6708 6.50134 16 7.2962 16 8.125V15.875C16 16.7038 15.6708 17.4987 15.0847 18.0847C14.4987 18.6708 13.7038 19 12.875 19H3.125C2.2962 19 1.50134 18.6708 0.915291 18.0847C0.32924 17.4987 0 16.7038 0 15.875V8.125C0 7.2962 0.32924 6.50134 0.915291 5.91529C1.50134 5.32924 2.2962 5 3.125 5H4ZM5.25 4V5H10.75V4C10.75 3.27065 10.4603 2.57118 9.94454 2.05546C9.42882 1.53973 8.72935 1.25 8 1.25C7.27065 1.25 6.57118 1.53973 6.05546 2.05546C5.53973 2.57118 5.25 3.27065 5.25 4ZM3.125 6.25C2.62772 6.25 2.15081 6.44754 1.79917 6.79917C1.44754 7.1508 1.25 7.62772 1.25 8.125V15.875C1.25 16.3723 1.44754 16.8492 1.79917 17.2008C2.15081 17.5525 2.62772 17.75 3.125 17.75H12.875C13.3723 17.75 13.8492 17.5525 14.2008 17.2008C14.5525 16.8492 14.75 16.3723 14.75 15.875V8.125C14.75 7.62772 14.5525 7.1508 14.2008 6.79917C13.8492 6.44754 13.3723 6.25 12.875 6.25H3.125Z" fill="#DBDBDB"/>
</svg>
