<svg width="28" height="24" viewBox="0 0 28 24" fill="none" xmlns="http://www.w3.org/2000/svg">
<path d="M17.75 10.75C19.0761 10.75 20.3479 10.2232 21.2855 9.28553C22.2232 8.34785 22.75 7.07608 22.75 5.75C22.75 4.42392 22.2232 3.15215 21.2855 2.21447C20.3479 1.27678 19.0761 0.75 17.75 0.75M20.25 14.5C21.9076 14.5 23.4973 15.1585 24.6694 16.3306C25.8415 17.5027 26.5 19.0924 26.5 20.75C26.5 21.413 26.2366 22.0489 25.7678 22.5178C25.2989 22.9866 24.663 23.25 24 23.25H22.125M15.25 5.75C15.25 7.07608 14.7232 8.34785 13.7855 9.28553C12.8479 10.2232 11.5761 10.75 10.25 10.75C8.92392 10.75 7.65215 10.2232 6.71447 9.28553C5.77678 8.34785 5.25 7.07608 5.25 5.75C5.25 4.42392 5.77678 3.15215 6.71447 2.21447C7.65215 1.27678 8.92392 0.75 10.25 0.75C11.5761 0.75 12.8479 1.27678 13.7855 2.21447C14.7232 3.15215 15.25 4.42392 15.25 5.75ZM12.75 14.5H7.75C6.0924 14.5 4.50269 15.1585 3.33058 16.3306C2.15848 17.5027 1.5 19.0924 1.5 20.75C1.5 21.413 1.76339 22.0489 2.23223 22.5178C2.70107 22.9866 3.33696 23.25 4 23.25H16.5C17.163 23.25 17.7989 22.9866 18.2678 22.5178C18.7366 22.0489 19 21.413 19 20.75C19 19.0924 18.3415 17.5027 17.1694 16.3306C15.9973 15.1585 14.4076 14.5 12.75 14.5Z" stroke="black" stroke-width="1.5" stroke-linecap="round" stroke-linejoin="round"/>
</svg>
