<svg width="20" height="21" viewBox="0 0 20 21" fill="none" xmlns="http://www.w3.org/2000/svg">
<path d="M11.0875 19.2852L10 18.6602L12.5 14.2852H16.25C16.5815 14.2852 16.8995 14.1535 17.1339 13.919C17.3683 13.6846 17.5 13.3667 17.5 13.0352V5.53516C17.5 5.20364 17.3683 4.88569 17.1339 4.65127C16.8995 4.41685 16.5815 4.28516 16.25 4.28516H3.75C3.41848 4.28516 3.10054 4.41685 2.86612 4.65127C2.6317 4.88569 2.5 5.20364 2.5 5.53516V13.0352C2.5 13.3667 2.6317 13.6846 2.86612 13.919C3.10054 14.1535 3.41848 14.2852 3.75 14.2852H9.375V15.5352H3.75C3.08696 15.5352 2.45107 15.2718 1.98223 14.8029C1.51339 14.3341 1.25 13.6982 1.25 13.0352V5.53516C1.25 4.87212 1.51339 4.23623 1.98223 3.76739C2.45107 3.29855 3.08696 3.03516 3.75 3.03516H16.25C16.913 3.03516 17.5489 3.29855 18.0178 3.76739C18.4866 4.23623 18.75 4.87212 18.75 5.53516V13.0352C18.75 13.6982 18.4866 14.3341 18.0178 14.8029C17.5489 15.2718 16.913 15.5352 16.25 15.5352H13.225L11.0875 19.2852Z" fill="#42AAFF"/>
<path d="M5 6.78516H15V8.03516H5V6.78516ZM5 10.5352H11.25V11.7852H5V10.5352Z" fill="#42AAFF"/>
</svg>
