<svg width="20" height="21" viewBox="0 0 20 21" fill="none" xmlns="http://www.w3.org/2000/svg">
<path d="M18.1249 17.7753L13.4049 13.0553C14.5391 11.6936 15.1047 9.94709 14.9841 8.17901C14.8634 6.41093 14.0657 4.75744 12.7569 3.56252C11.4482 2.36759 9.7291 1.72324 7.95736 1.7635C6.18562 1.80375 4.49761 2.52552 3.24448 3.77866C1.99134 5.03179 1.26958 6.7198 1.22932 8.49154C1.18906 10.2633 1.83341 11.9823 3.02834 13.2911C4.22326 14.5999 5.87675 15.3975 7.64483 15.5182C9.41291 15.6389 11.1595 15.0733 12.5211 13.9391L17.2411 18.6591L18.1249 17.7753ZM2.49989 8.65907C2.49989 7.54655 2.82979 6.45901 3.44787 5.53399C4.06596 4.60896 4.94446 3.88799 5.97229 3.46225C7.00013 3.0365 8.13113 2.92511 9.22227 3.14215C10.3134 3.35919 11.3157 3.89492 12.1024 4.68159C12.889 5.46826 13.4248 6.47054 13.6418 7.56169C13.8588 8.65283 13.7475 9.78383 13.3217 10.8117C12.896 11.8395 12.175 12.718 11.25 13.3361C10.3249 13.9542 9.23741 14.2841 8.12489 14.2841C6.63355 14.2824 5.20377 13.6893 4.14924 12.6347C3.09471 11.5802 2.50154 10.1504 2.49989 8.65907Z" fill="#41D47C"/>
</svg>
