<svg width="24" height="25" viewBox="0 0 24 25" fill="none" xmlns="http://www.w3.org/2000/svg">
<path fill-rule="evenodd" clip-rule="evenodd" d="M9.94436 3.78516H14.0564C15.8944 3.78516 17.3504 3.78516 18.4894 3.93816C19.6614 4.09616 20.6104 4.42816 21.3594 5.17616C22.1074 5.92516 22.4394 6.87416 22.5974 8.04616C22.6874 8.71916 22.7244 9.50216 22.7394 10.4092C22.7518 10.4852 22.7531 10.5627 22.7434 10.6392C22.7494 11.2045 22.7517 11.8178 22.7504 12.4792V12.5352C22.7504 12.7341 22.6713 12.9248 22.5307 13.0655C22.39 13.2061 22.1993 13.2852 22.0004 13.2852C21.8015 13.2852 21.6107 13.2061 21.47 13.0655C21.3294 12.9248 21.2504 12.7341 21.2504 12.5352C21.2504 12.0898 21.2497 11.6732 21.2484 11.2852H2.75236C2.75036 11.6732 2.7497 12.0898 2.75036 12.5352C2.75036 14.4422 2.75236 15.7972 2.89036 16.8252C3.02536 17.8302 3.27936 18.4102 3.70236 18.8332C4.12536 19.2562 4.70536 19.5102 5.71136 19.6452C6.73936 19.7832 8.09336 19.7852 10.0004 19.7852H14.0004C14.1993 19.7852 14.39 19.8642 14.5307 20.0048C14.6713 20.1455 14.7504 20.3362 14.7504 20.5352C14.7504 20.7341 14.6713 20.9248 14.5307 21.0655C14.39 21.2061 14.1993 21.2852 14.0004 21.2852H9.94436C8.10636 21.2852 6.65036 21.2852 5.51136 21.1322C4.33936 20.9742 3.39036 20.6422 2.64136 19.8942C1.89336 19.1452 1.56136 18.1962 1.40336 17.0242C1.25036 15.8842 1.25036 14.4292 1.25036 12.5912V12.4792C1.24903 11.8178 1.25136 11.2045 1.25736 10.6392C1.24728 10.5627 1.24829 10.4853 1.26036 10.4092C1.27636 9.50216 1.31336 8.71916 1.40336 8.04616C1.56136 6.87416 1.89336 5.92516 2.64136 5.17616C3.39036 4.42816 4.33936 4.09616 5.51136 3.93816C6.65136 3.78516 8.10636 3.78516 9.94436 3.78516ZM2.77636 9.78516H21.2244C21.2112 9.27029 21.1731 8.75636 21.1104 8.24516C20.9754 7.24016 20.7214 6.66016 20.2984 6.23716C19.8754 5.81416 19.2954 5.56016 18.2894 5.42516C17.2624 5.28716 15.9074 5.28516 14.0004 5.28516H10.0004C8.09336 5.28516 6.73936 5.28716 5.71036 5.42516C4.70536 5.56016 4.12536 5.81416 3.70236 6.23716C3.27936 6.66016 3.02536 7.24016 2.89036 8.24516C2.83036 8.69016 2.79636 9.19716 2.77636 9.78416M19.0004 13.7842C19.1993 13.7842 19.39 13.8632 19.5307 14.0038C19.6713 14.1445 19.7504 14.3352 19.7504 14.5342V18.7242L20.4704 18.0042C20.539 17.9305 20.6218 17.8714 20.7138 17.8304C20.8058 17.7894 20.9051 17.7673 21.0058 17.7656C21.1065 17.7638 21.2066 17.7823 21.3 17.82C21.3933 17.8578 21.4782 17.9139 21.5494 17.9851C21.6206 18.0563 21.6768 18.1412 21.7145 18.2346C21.7522 18.3279 21.7707 18.428 21.769 18.5287C21.7672 18.6294 21.7451 18.7287 21.7041 18.8207C21.6632 18.9127 21.6041 18.9955 21.5304 19.0642L19.5304 21.0642C19.3897 21.2046 19.1991 21.2835 19.0004 21.2835C18.8016 21.2835 18.611 21.2046 18.4704 21.0642L16.4704 19.0642C16.3967 18.9955 16.3376 18.9127 16.2966 18.8207C16.2556 18.7287 16.2335 18.6294 16.2318 18.5287C16.23 18.428 16.2485 18.3279 16.2862 18.2346C16.324 18.1412 16.3801 18.0563 16.4513 17.9851C16.5225 17.9139 16.6074 17.8578 16.7008 17.82C16.7942 17.7823 16.8942 17.7638 16.9949 17.7656C17.0956 17.7673 17.1949 17.7894 17.2869 17.8304C17.3789 17.8714 17.4617 17.9305 17.5304 18.0042L18.2504 18.7242V14.5352C18.2504 14.3362 18.3294 14.1455 18.47 14.0048C18.6107 13.8642 18.8015 13.7852 19.0004 13.7852M5.25036 16.5352C5.25036 16.3362 5.32938 16.1455 5.47003 16.0048C5.61069 15.8642 5.80145 15.7852 6.00036 15.7852H10.0004C10.1993 15.7852 10.39 15.8642 10.5307 16.0048C10.6713 16.1455 10.7504 16.3362 10.7504 16.5352C10.7504 16.7341 10.6713 16.9248 10.5307 17.0655C10.39 17.2061 10.1993 17.2852 10.0004 17.2852H6.00036C5.80145 17.2852 5.61069 17.2061 5.47003 17.0655C5.32938 16.9248 5.25036 16.7341 5.25036 16.5352ZM11.7504 16.5352C11.7504 16.3362 11.8294 16.1455 11.97 16.0048C12.1107 15.8642 12.3015 15.7852 12.5004 15.7852H13.0004C13.1993 15.7852 13.39 15.8642 13.5307 16.0048C13.6713 16.1455 13.7504 16.3362 13.7504 16.5352C13.7504 16.7341 13.6713 16.9248 13.5307 17.0655C13.39 17.2061 13.1993 17.2852 13.0004 17.2852H12.5004C12.3015 17.2852 12.1107 17.2061 11.97 17.0655C11.8294 16.9248 11.7504 16.7341 11.7504 16.5352Z" fill="#9F4E90"/>
</svg>
