<svg width="20" height="21" viewBox="0 0 20 21" fill="none" xmlns="http://www.w3.org/2000/svg">
<path d="M14.0625 11.7852H12.5V9.28516H14.0625C14.6188 9.28516 15.1625 9.12021 15.625 8.81117C16.0876 8.50212 16.448 8.06287 16.6609 7.54895C16.8738 7.03504 16.9295 6.46954 16.821 5.92397C16.7124 5.37839 16.4446 4.87725 16.0512 4.48392C15.6579 4.09058 15.1568 3.82272 14.6112 3.7142C14.0656 3.60568 13.5001 3.66137 12.9862 3.87425C12.4723 4.08712 12.033 4.4476 11.724 4.91012C11.415 5.37263 11.25 5.9164 11.25 6.47266V8.03516H8.75V6.47266C8.75 5.9164 8.58505 5.37263 8.27601 4.91012C7.96697 4.4476 7.52772 4.08712 7.0138 3.87425C6.49988 3.66137 5.93438 3.60568 5.38881 3.7142C4.84324 3.82272 4.3421 4.09058 3.94876 4.48392C3.55543 4.87725 3.28756 5.37839 3.17904 5.92397C3.07052 6.46954 3.12622 7.03504 3.33909 7.54895C3.55196 8.06287 3.91245 8.50212 4.37496 8.81117C4.83747 9.12021 5.38124 9.28516 5.9375 9.28516H7.5V11.7852H5.9375C5.38124 11.7852 4.83747 11.9501 4.37496 12.2591C3.91245 12.5682 3.55196 13.0074 3.33909 13.5214C3.12622 14.0353 3.07052 14.6008 3.17904 15.1463C3.28756 15.6919 3.55543 16.1931 3.94876 16.5864C4.3421 16.9797 4.84324 17.2476 5.38881 17.3561C5.93438 17.4646 6.49988 17.4089 7.0138 17.1961C7.52772 16.9832 7.96697 16.6227 8.27601 16.1602C8.58505 15.6977 8.75 15.1539 8.75 14.5977V13.0352H11.25V14.5977C11.25 15.1539 11.415 15.6977 11.724 16.1602C12.033 16.6227 12.4723 16.9832 12.9862 17.1961C13.5001 17.4089 14.0656 17.4646 14.6112 17.3561C15.1568 17.2476 15.6579 16.9797 16.0512 16.5864C16.4446 16.1931 16.7124 15.6919 16.821 15.1463C16.9295 14.6008 16.8738 14.0353 16.6609 13.5214C16.448 13.0074 16.0876 12.5682 15.625 12.2591C15.1625 11.9501 14.6188 11.7852 14.0625 11.7852ZM12.5 6.47266C12.5 6.16362 12.5916 5.86153 12.7633 5.60458C12.935 5.34763 13.179 5.14736 13.4646 5.0291C13.7501 4.91083 14.0642 4.87989 14.3673 4.94018C14.6704 5.00047 14.9488 5.14928 15.1674 5.3678C15.3859 5.58632 15.5347 5.86473 15.595 6.16783C15.6553 6.47092 15.6243 6.78509 15.5061 7.0706C15.3878 7.35611 15.1875 7.60014 14.9306 7.77183C14.6736 7.94352 14.3715 8.03516 14.0625 8.03516H12.5V6.47266ZM4.375 6.47266C4.375 6.05826 4.53962 5.66083 4.83265 5.3678C5.12567 5.07478 5.5231 4.91016 5.9375 4.91016C6.3519 4.91016 6.74933 5.07478 7.04236 5.3678C7.33538 5.66083 7.5 6.05826 7.5 6.47266V8.03516H5.9375C5.5231 8.03516 5.12567 7.87054 4.83265 7.57751C4.53962 7.28449 4.375 6.88706 4.375 6.47266ZM7.5 14.5977C7.5 14.9067 7.40836 15.2088 7.23667 15.4657C7.06498 15.7227 6.82095 15.923 6.53544 16.0412C6.24993 16.1595 5.93577 16.1904 5.63267 16.1301C5.32958 16.0698 5.05117 15.921 4.83265 15.7025C4.61413 15.484 4.46531 15.2056 4.40502 14.9025C4.34473 14.5994 4.37568 14.2852 4.49394 13.9997C4.6122 13.7142 4.81247 13.4702 5.06942 13.2985C5.32637 13.1268 5.62847 13.0352 5.9375 13.0352H7.5V14.5977ZM8.75 9.28516H11.25V11.7852H8.75V9.28516ZM14.0625 16.1602C13.6481 16.1602 13.2507 15.9955 12.9576 15.7025C12.6646 15.4095 12.5 15.0121 12.5 14.5977V13.0352H14.0625C14.4769 13.0352 14.8743 13.1998 15.1674 13.4928C15.4604 13.7858 15.625 14.1833 15.625 14.5977C15.625 15.0121 15.4604 15.4095 15.1674 15.7025C14.8743 15.9955 14.4769 16.1602 14.0625 16.1602Z" fill="white"/>
</svg>
