<svg width="24" height="25" viewBox="0 0 24 25" fill="none" xmlns="http://www.w3.org/2000/svg">
<path d="M12 8.53516C8.44 8.53516 6.65 12.8452 9.17 15.3652C11.69 17.8852 16 16.0952 16 12.5352C16 10.3252 14.21 8.53516 12 8.53516ZM5 15.5352H3V19.5352C3 20.6352 3.9 21.5352 5 21.5352H9V19.5352H5M5 5.53516H9V3.53516H5C3.9 3.53516 3 4.43516 3 5.53516V9.53516H5M19 3.53516H15V5.53516H19V9.53516H21V5.53516C21 4.43516 20.1 3.53516 19 3.53516ZM19 19.5352H15V21.5352H19C20.1 21.5352 21 20.6352 21 19.5352V15.5352H19" fill="#D84C10"/>
</svg>
