<svg width="195" height="268" viewBox="0 0 195 268" fill="none" xmlns="http://www.w3.org/2000/svg">
<path d="M69.0089 93.3502C69.0089 93.3502 50.0137 74.9903 33.6441 81.5289C17.2151 88.0942 27.0119 109.881 69.0089 93.3502Z" fill="url(#paint0_linear_1748_29479)"/>
<path d="M69.2267 94.3492C69.2267 94.3492 95.4526 75.1337 96.0704 57.8601C96.6882 40.5859 83.0251 45.105 79.1552 51.1597C75.2853 57.2145 68.6674 76.0341 69.2267 94.3492Z" fill="url(#paint1_linear_1748_29479)"/>
<path d="M74.1173 133.399C74.1173 133.399 63.7907 123.445 46.9192 119.427C30.0481 115.411 26.615 125.703 27.9935 129.189C29.3719 132.675 33.3293 143.21 74.1173 133.399Z" fill="url(#paint2_linear_1748_29479)"/>
<path d="M73.5508 133.952C73.5508 133.952 102.442 130.622 110.255 119.733C118.069 108.845 114.469 103.954 110.221 103.55C106.032 103.121 97.787 105.571 88.1971 114.774C78.6908 124.012 73.5508 133.952 73.5508 133.952Z" fill="url(#paint3_linear_1748_29479)"/>
<path d="M69.4373 188.834C69.4373 188.834 59.6613 172.551 37.2543 168.663C14.8473 164.775 17.0471 185.122 40.2382 189.234C58.0947 192.347 69.4373 188.834 69.4373 188.834Z" fill="url(#paint4_linear_1748_29479)"/>
<path d="M69.2871 189.548C69.2871 189.548 108.688 194.767 117.469 184.588C126.273 174.469 107.926 169.592 91.538 176.829C75.1501 184.065 69.2871 189.548 69.2871 189.548Z" fill="url(#paint5_linear_1748_29479)"/>
<path d="M51.7826 233.126C51.7826 233.126 44.8869 219.922 37.9964 214.495C27.9707 206.61 15.9334 201.578 13.6626 208.716C11.3918 215.855 17.6534 225.161 30.6796 230.047C43.6461 234.959 51.7826 233.126 51.7826 233.126Z" fill="url(#paint6_linear_1748_29479)"/>
<path d="M51.5078 233.594C51.5078 233.594 72.8316 241.712 79.7407 242.513C86.5904 243.338 93.073 243.058 94.0631 235.738C95.0532 228.418 89.8605 224.413 76.0569 227.587C62.2542 230.761 51.5078 233.594 51.5078 233.594Z" fill="url(#paint7_linear_1748_29479)"/>
<path d="M41.8353 283.378C41.8353 283.378 25.2012 264.679 8.89176 269.643C-7.41768 274.607 0.474567 295.973 41.8353 283.378Z" fill="#FF0004"/>
<path d="M41.0762 284.29C41.0762 284.29 76.1505 292.677 82.7159 284.566C89.3044 276.514 68.9441 263.435 41.0762 284.29Z" fill="#FF0004"/>
<path d="M47.623 45.3938C47.623 45.3938 61.8161 36.898 66.5192 23.2097C71.2224 9.52141 67.2336 -1.08041 59.075 1.24253C50.9172 3.56547 47.623 45.3938 47.623 45.3938Z" fill="url(#paint8_linear_1748_29479)"/>
<path d="M48.9749 45.7775C48.9749 45.7775 50.9617 27.3661 35.8066 10.4416C20.6516 -6.48282 -7.60616 14.0416 48.9749 45.7775Z" fill="url(#paint9_linear_1748_29479)"/>
<path d="M45.3127 326.378C40.1906 306.545 34.6962 267.021 55.6154 224.844C77.5138 180.543 76.385 157.349 74.5039 118.812L74.4677 118.544C72.5633 79.945 50.5622 44.7357 50.3586 44.3984L49.4139 45.0205C49.6773 45.3318 71.5224 80.3255 73.3673 118.595L73.4035 118.863C75.2725 157.194 76.3772 180.327 54.6218 224.282C33.5594 266.804 39.114 306.657 44.284 326.611L45.3127 326.378Z" fill="#E9E9E9"/>
<path d="M166.969 160.312C166.969 160.312 157.929 144.915 146.253 146.131C134.534 147.352 137.055 163.273 166.969 160.312Z" fill="url(#paint10_linear_1748_29479)"/>
<path d="M166.996 161.068C166.996 161.068 187.22 153.457 190.619 142.376C194.018 131.294 184.435 131.699 180.892 134.909C177.349 138.118 169.817 149.094 166.996 161.068Z" fill="url(#paint11_linear_1748_29479)"/>
<path d="M163.332 187.135C163.332 187.135 158.412 178.78 148.247 173.064C138.083 167.348 134.084 173.383 134.365 175.896C134.647 178.409 135.365 185.965 163.332 187.135Z" fill="url(#paint12_linear_1748_29479)"/>
<path d="M162.949 187.428C162.949 187.428 182.135 190.588 189.062 184.983C195.99 179.378 194.523 175.553 191.858 174.511C189.235 173.462 183.498 173.53 175.721 177.719C167.989 181.944 162.949 187.428 162.949 187.428Z" fill="url(#paint13_linear_1748_29479)"/>
<path d="M150.708 222.087C150.708 222.087 147.242 209.729 133.49 203.071C119.737 196.414 117.619 210.008 131.837 216.955C142.794 222.269 150.708 222.087 150.708 222.087Z" fill="url(#paint14_linear_1748_29479)"/>
<path d="M150.59 222.555C150.59 222.555 175.057 233.168 182.485 228.202C189.918 223.279 178.95 216.755 167.135 218.422C155.32 220.088 150.59 222.555 150.59 222.555Z" fill="url(#paint15_linear_1748_29479)"/>
<path d="M131.646 247.442C131.646 247.442 129.499 237.61 126.004 232.82C120.917 225.858 114.038 220.374 111.335 224.582C108.631 228.789 111.046 235.978 118.588 241.55C126.086 247.128 131.646 247.442 131.646 247.442Z" fill="url(#paint16_linear_1748_29479)"/>
<path d="M131.482 247.691C131.482 247.691 143.801 256.88 148.112 258.673C152.379 260.471 156.601 261.484 158.511 256.926C160.422 252.368 157.774 248.816 148.334 248.328C138.895 247.838 131.482 247.691 131.482 247.691Z" fill="url(#paint17_linear_1748_29479)"/>
<path d="M161.744 125.6C161.744 125.6 172.097 122.661 177.382 114.56C182.667 106.46 181.974 98.7709 176.46 98.7813C170.946 98.7925 161.744 125.6 161.744 125.6Z" fill="url(#paint18_linear_1748_29479)"/>
<path d="M162.277 125.915C162.277 125.915 166.76 114.351 159.932 100.585C153.106 86.8191 131.32 94.9011 162.277 125.915Z" fill="url(#paint19_linear_1748_29479)"/>
<path d="M111.19 306.762C111.345 292.966 114.693 266.339 135.545 242.863C157.401 218.189 160.718 202.951 166.226 177.63L166.249 177.45C171.752 152.085 163.696 125.213 163.624 124.957L162.906 125.186C163.022 125.436 171.014 152.14 165.53 177.28L165.506 177.46C160.027 202.645 156.705 217.839 135.003 242.315C113.997 265.99 110.63 292.84 110.486 306.723L111.19 306.762Z" fill="#E9E9E9"/>
<defs>
<linearGradient id="paint0_linear_1748_29479" x1="42.1129" y1="75.6651" x2="49.0937" y2="101.017" gradientUnits="userSpaceOnUse">
<stop stop-color="#FFEBDD"/>
<stop offset="1" stop-color="#393939"/>
</linearGradient>
<linearGradient id="paint1_linear_1748_29479" x1="94.4711" y1="40.2939" x2="68.9715" y2="94.1032" gradientUnits="userSpaceOnUse">
<stop stop-color="#FFEBDD"/>
<stop offset="1" stop-color="#393939"/>
</linearGradient>
<linearGradient id="paint2_linear_1748_29479" x1="43.3967" y1="114.448" x2="50.3764" y2="139.372" gradientUnits="userSpaceOnUse">
<stop stop-color="#D4EFEE"/>
<stop offset="0.0001" stop-color="#FFEBDD"/>
<stop offset="1" stop-color="#393939"/>
</linearGradient>
<linearGradient id="paint3_linear_1748_29479" x1="93.413" y1="142.524" x2="95.1603" y2="97.5265" gradientUnits="userSpaceOnUse">
<stop stop-color="#393939"/>
<stop offset="1" stop-color="#FFEBDD"/>
</linearGradient>
<linearGradient id="paint4_linear_1748_29479" x1="44.7141" y1="165.595" x2="45.0168" y2="192.178" gradientUnits="userSpaceOnUse">
<stop stop-color="#FFEBDD"/>
<stop offset="1" stop-color="#393939"/>
</linearGradient>
<linearGradient id="paint5_linear_1748_29479" x1="93.4096" y1="170.177" x2="95.9412" y2="196.06" gradientUnits="userSpaceOnUse">
<stop stop-color="#FFEBDD"/>
<stop offset="1" stop-color="#393939"/>
</linearGradient>
<linearGradient id="paint6_linear_1748_29479" x1="31.8529" y1="200.323" x2="34.5426" y2="237.557" gradientUnits="userSpaceOnUse">
<stop stop-color="#FFEBDD"/>
<stop offset="1" stop-color="#393939"/>
</linearGradient>
<linearGradient id="paint7_linear_1748_29479" x1="77.9423" y1="217.324" x2="65.0396" y2="246.593" gradientUnits="userSpaceOnUse">
<stop stop-color="#FFEBDD"/>
<stop offset="1" stop-color="#393939"/>
</linearGradient>
<linearGradient id="paint8_linear_1748_29479" x1="47.1621" y1="48.314" x2="65.7038" y2="-4.35541" gradientUnits="userSpaceOnUse">
<stop stop-color="#393939"/>
<stop offset="1" stop-color="#FFEBDD"/>
</linearGradient>
<linearGradient id="paint9_linear_1748_29479" x1="12.7808" y1="-0.909343" x2="52.4113" y2="47.6741" gradientUnits="userSpaceOnUse">
<stop stop-color="#FFEBDD"/>
<stop offset="1" stop-color="#393939"/>
</linearGradient>
<linearGradient id="paint10_linear_1748_29479" x1="152.724" y1="143.895" x2="152.568" y2="161.603" gradientUnits="userSpaceOnUse">
<stop stop-color="#FFEBDD"/>
<stop offset="1" stop-color="#393939"/>
</linearGradient>
<linearGradient id="paint11_linear_1748_29479" x1="192.641" y1="130.695" x2="166.505" y2="160.538" gradientUnits="userSpaceOnUse">
<stop stop-color="#FFEBDD"/>
<stop offset="1" stop-color="#393939"/>
</linearGradient>
<linearGradient id="paint12_linear_1748_29479" x1="146.845" y1="169.187" x2="146.766" y2="186.623" gradientUnits="userSpaceOnUse">
<stop stop-color="#FFEBDD"/>
<stop offset="1" stop-color="#393939"/>
</linearGradient>
<linearGradient id="paint13_linear_1748_29479" x1="174.248" y1="196.624" x2="183.641" y2="167.987" gradientUnits="userSpaceOnUse">
<stop stop-color="#393939"/>
<stop offset="1" stop-color="#FFEBDD"/>
</linearGradient>
<linearGradient id="paint14_linear_1748_29479" x1="138.826" y1="202.461" x2="134.104" y2="219.663" gradientUnits="userSpaceOnUse">
<stop stop-color="#FFEBDD"/>
<stop offset="1" stop-color="#393939"/>
</linearGradient>
<linearGradient id="paint15_linear_1748_29479" x1="169.499" y1="214.466" x2="166.372" y2="231.617" gradientUnits="userSpaceOnUse">
<stop stop-color="#FFEBDD"/>
<stop offset="1" stop-color="#393939"/>
</linearGradient>
<linearGradient id="paint16_linear_1748_29479" x1="124.511" y1="222.5" x2="119.36" y2="247.045" gradientUnits="userSpaceOnUse">
<stop stop-color="#FFEBDD"/>
<stop offset="1" stop-color="#393939"/>
</linearGradient>
<linearGradient id="paint17_linear_1748_29479" x1="151.333" y1="242.029" x2="137.738" y2="258.44" gradientUnits="userSpaceOnUse">
<stop stop-color="#FFEBDD"/>
<stop offset="1" stop-color="#393939"/>
</linearGradient>
<linearGradient id="paint18_linear_1748_29479" x1="160.957" y1="127.429" x2="182.996" y2="97.3853" gradientUnits="userSpaceOnUse">
<stop stop-color="#393939"/>
<stop offset="1" stop-color="#FFEBDD"/>
</linearGradient>
<linearGradient id="paint19_linear_1748_29479" x1="147.062" y1="88.978" x2="164.05" y2="127.828" gradientUnits="userSpaceOnUse">
<stop stop-color="#FFEBDD"/>
<stop offset="1" stop-color="#393939"/>
</linearGradient>
</defs>
</svg>
