<svg width="19" height="16" viewBox="0 0 19 16" fill="none" xmlns="http://www.w3.org/2000/svg">
<path d="M16.5712 9.14373L10.9142 14.8017C10.5391 15.1767 10.0305 15.3873 9.5002 15.3873C8.96987 15.3873 8.46126 15.1767 8.0862 14.8017L2.4292 9.14473C1.96157 8.68118 1.59011 8.12983 1.33613 7.52233C1.08216 6.91483 0.950673 6.26315 0.949231 5.6047C0.947789 4.94625 1.07642 4.294 1.32773 3.68539C1.57904 3.07679 1.94809 2.52381 2.41368 2.05822C2.87928 1.59262 3.43225 1.22357 4.04086 0.97226C4.64947 0.720948 5.30172 0.59232 5.96017 0.593762C6.61862 0.595204 7.2703 0.726687 7.8778 0.980662C8.4853 1.23464 9.03665 1.6061 9.5002 2.07373C10.4418 1.1556 11.7071 0.645399 13.0222 0.653639C14.3373 0.661879 15.5962 1.1879 16.5262 2.11776C17.4562 3.04761 17.9824 4.30643 17.9908 5.62151C17.9992 6.93659 17.4892 8.20204 16.5712 9.14373Z" fill="#E63946" stroke="#E63946" stroke-linecap="round" stroke-linejoin="round"/>
</svg>
