<svg width="213" height="287" viewBox="0 0 213 287" fill="none" xmlns="http://www.w3.org/2000/svg">
<path d="M366.792 -197.431C404.733 -226.842 438.101 -191.622 476.044 -221.033L400.313 -301.163C394.239 -307.58 -365.807 280.237 -358.994 287.436L-283.263 367.566C-245.322 338.154 -278.596 302.86 -240.653 273.449C-202.712 244.037 -169.344 279.257 -131.403 249.846C-93.4602 220.434 -126.734 185.14 -88.7929 155.729C-50.8504 126.317 -17.4825 161.538 20.4588 132.126C58.4013 102.715 25.1273 67.4213 63.0686 38.0093C101.01 8.59731 134.379 43.8183 172.32 14.4063C210.262 -15.0047 176.989 -50.2987 214.93 -79.7107C252.872 -109.122 286.241 -73.9017 324.182 -103.313C362.123 -132.725 328.85 -168.019 366.792 -197.431Z" fill="#C6E3FF" fill-opacity="0.5"/>
</svg>
