<svg width="30" height="30" viewBox="0 0 30 30" fill="none" xmlns="http://www.w3.org/2000/svg">
<g clip-path="url(#clip0_1142_10092)">
<path d="M16.8751 18.75V16.875H17.8126V10.3125H16.8751V8.4375H20.6251V10.3125H19.6876V16.875H20.6251V18.75H16.8751ZM13.5939 18.75H15.4689L12.1876 8.4375H9.37512L6.09668 18.75H7.97168L8.53512 16.875H13.0145L13.5939 18.75ZM9.09949 15L10.6257 9.92719L10.8657 9.92438L12.4351 15H9.09949ZM24.5786 19.6875L22.9032 23.0822L19.157 23.6259L21.8682 26.2697L21.2279 30L24.5786 28.2384L27.9292 30L27.2889 26.2688L30.0001 23.6269L26.2539 23.0822L24.5786 19.6875Z" fill="black"/>
<path d="M15.9375 28.125H0V0H28.125V15.9375H26.25V1.875H1.875V26.25H15.9375V28.125Z" fill="black"/>
</g>
<defs>
<clipPath id="clip0_1142_10092">
<rect width="30" height="30" fill="white"/>
</clipPath>
</defs>
</svg>
