<svg width="33" height="33" viewBox="0 0 33 33" fill="none" xmlns="http://www.w3.org/2000/svg">
<g clip-path="url(#clip0_1142_10054)">
<path d="M13.5424 19.942C13.9788 21.1541 15.5788 21.542 16.5 20.5723C17.2273 21.3481 18.3909 21.2996 19.1182 20.5723C19.2636 20.3784 19.4091 20.1844 19.4576 19.9905C20.5242 20.2329 21.5909 19.4087 21.5909 18.2935C22.5606 18.0996 23.1909 17.1299 22.997 16.1602C23.7727 15.5299 23.8697 14.4147 23.2394 13.6874C23.9182 12.7662 23.4818 11.4571 22.4636 11.0208C22.803 9.90563 21.9303 8.74199 20.7667 8.74199C20.6212 7.96623 19.9424 7.38441 19.1667 7.33593C18.4879 6.51169 17.2758 6.51169 16.5485 7.28744C15.8697 6.56017 14.6091 6.51169 13.9303 7.33593C13.1061 7.38441 12.4758 7.96623 12.3303 8.74199C11.1667 8.74199 10.2939 9.90563 10.6333 11.0208C10.1485 11.2147 9.80909 11.6026 9.61515 12.1359C9.42121 12.6693 9.51818 13.2511 9.85758 13.6874C9.22727 14.4147 9.32424 15.5299 10.1 16.1602C9.85758 17.1299 10.5364 18.0996 11.5061 18.2935C11.4091 19.3602 12.4758 20.1359 13.5424 19.942ZM18.4879 8.0632C18.5849 8.20866 18.7788 8.30563 18.9727 8.30563C19.5061 8.25714 19.8939 8.64502 19.8455 9.17835C19.6515 9.51775 19.3121 9.76017 19.0697 9.6632C18.8273 9.56623 18.5364 9.6632 18.4394 9.90563C18.3424 10.1481 18.4394 10.439 18.6818 10.5359C18.8273 10.5844 19.0212 10.6329 19.2152 10.6329C19.797 10.6329 20.3303 10.2935 20.6697 9.71169C21.3 9.56623 21.8333 10.342 21.4939 10.8753C20.8152 11.0208 20.2333 11.6026 20.2333 12.3784C20.2333 12.6693 20.4273 12.8632 20.7182 12.8632C21.0091 12.8632 21.203 12.6693 21.203 12.3784C21.203 11.0693 23.5303 12.3784 22.2697 13.2996C22.1242 13.3965 22.0758 13.542 22.0758 13.7359V13.7844C22.0273 14.1723 21.7364 14.4632 21.3485 14.4632C21.0576 14.4632 20.8636 14.6571 20.8636 14.9481C20.8636 15.239 21.0576 15.4329 21.3485 15.4329C21.8818 15.4329 22.3667 15.1905 22.7061 14.7541C22.7545 15.142 22.5606 15.4329 22.2697 15.5784C22.1727 15.6268 22.0758 15.7238 22.0273 15.8693C21.9788 16.0147 21.9788 16.1117 22.0758 16.2571C22.7061 17.4693 20.5242 17.8087 20.5242 16.839C20.5242 16.5481 20.3303 16.3541 20.0394 16.3541C19.7485 16.3541 19.5545 16.5481 19.5545 16.839C19.5545 17.5177 20.0394 18.0996 20.7182 18.2935C20.7182 18.9238 19.9909 19.3602 19.4576 18.9238C19.3121 18.8268 19.1182 18.7784 18.9242 18.8753C18.7788 18.9723 18.6818 19.1662 18.6818 19.3602C18.7788 20.4753 17.0818 20.5238 17.0818 19.4087V18.0511C17.0818 17.5177 17.5182 17.0329 18.1 17.0329C18.3909 17.0329 18.5849 16.839 18.5849 16.5481C18.5849 16.2571 18.3909 16.0632 18.1 16.0632C17.7121 16.0632 17.3727 16.1602 17.0818 16.3541V14.7541C17.4697 14.4632 18.003 14.5117 18.3424 14.8511C18.4394 14.9481 18.5849 14.9965 18.6818 14.9965C18.7788 14.9965 18.9242 14.9481 19.0212 14.8511C19.2152 14.6571 19.2152 14.3662 19.0212 14.1723C18.4879 13.639 17.7121 13.4935 17.0333 13.6874V12.2329C17.2273 12.2814 17.4212 12.3299 17.6152 12.3299C18.1 12.3299 18.6333 12.1359 19.0212 11.748C19.2152 11.5541 19.2152 11.2632 19.0212 11.0693C18.8273 10.8753 18.5364 10.8753 18.3424 11.0693C18.003 11.4087 17.4697 11.4571 17.0818 11.1662V8.54805C16.9849 7.67532 18.0515 7.33593 18.4879 8.0632ZM12.3788 18.1965C13.0576 18.0026 13.5424 17.4208 13.5424 16.742C13.5424 16.4511 13.3485 16.2571 13.0576 16.2571C12.7667 16.2571 12.5727 16.4511 12.5727 16.742C12.5727 17.6632 10.3909 17.3723 11.0212 16.1602C11.0697 16.0632 11.0697 15.9177 11.0697 15.7723C11.0212 15.6268 10.9242 15.5299 10.8273 15.4814C10.5364 15.3359 10.3424 15.045 10.3909 14.6571C10.6818 15.045 11.1667 15.3359 11.7485 15.3359C12.0394 15.3359 12.2333 15.142 12.2333 14.8511C12.2333 14.5602 12.0394 14.3662 11.7485 14.3662C11.3606 14.3662 11.0697 14.0753 11.0212 13.6874C11.0212 13.4935 10.9727 13.3481 10.8273 13.2511C10.4879 13.0087 10.4394 12.6208 10.5364 12.3299C10.7788 11.5056 11.8939 11.6511 11.8939 12.3299C11.8939 12.6208 12.0879 12.8147 12.3788 12.8147C12.6697 12.8147 12.8636 12.6208 12.8636 12.3299C12.8636 11.6026 12.3303 10.9723 11.603 10.8268C11.2636 10.245 11.797 9.51775 12.4273 9.6632C12.6212 10.0026 12.8636 10.245 13.1545 10.3905C13.397 10.5359 13.6394 10.5844 13.8818 10.5844C14.0758 10.5844 14.2212 10.5359 14.4152 10.4874C14.6576 10.3905 14.7545 10.0996 14.6576 9.85714C14.5606 9.61472 14.2697 9.51775 14.0273 9.61472C13.1545 10.0026 12.8636 8.16017 14.1242 8.30563C14.3182 8.30563 14.5121 8.25714 14.6091 8.0632C15.0455 7.33593 16.1121 7.67532 16.1121 8.45108V11.0693C15.7242 11.3602 15.1909 11.3117 14.8515 10.9723C14.6576 10.7784 14.3667 10.7784 14.1727 10.9723C13.9788 11.1662 13.9788 11.4571 14.1727 11.6511C14.5606 12.039 15.0455 12.2329 15.5788 12.2329C15.7727 12.2329 15.9667 12.1844 16.1606 12.1359V13.5905C15.4818 13.3965 14.7061 13.542 14.1727 14.0753C13.9788 14.2693 13.9788 14.5602 14.1727 14.7541C14.3667 14.9481 14.6576 14.9481 14.8515 14.7541C15.1909 14.4147 15.7242 14.3662 16.1121 14.6571V16.2571C15.8212 16.0632 15.4818 15.9662 15.0939 15.9662C14.803 15.9662 14.6091 16.1602 14.6091 16.4511C14.6091 16.742 14.803 16.9359 15.0939 16.9359C15.6273 16.9359 16.1121 17.3723 16.1121 17.9541V19.3117C16.1121 20.4268 14.4152 20.3299 14.5121 19.2632C14.5121 19.0693 14.4152 18.8753 14.2697 18.7784C14.1727 18.7299 14.1242 18.7299 14.0273 18.7299C13.9303 18.7299 13.8333 18.7784 13.7364 18.8268C13.1061 19.2632 12.3788 18.7784 12.3788 18.1965Z" fill="#453AFF"/>
<path d="M23.4333 20.136C25.0333 18.3905 25.906 16.1602 25.906 13.7845C25.906 11.2148 24.8878 8.79052 22.9969 6.99658C21.106 5.20264 18.6818 4.28143 16.0636 4.42688C11.1181 4.66931 7.14239 8.839 7.14239 13.7845C7.14239 16.0632 7.96663 18.2935 9.51815 20.039C11.7485 22.5117 11.2636 24.7905 11.4575 25.1784C11.1666 25.5178 10.9727 25.9542 10.9727 26.439C10.9727 27.5057 11.7969 28.3299 12.8151 28.3784V28.6693C12.8151 30.7057 14.4636 32.3542 16.5 32.3542C18.5363 32.3542 20.1848 30.7057 20.1848 28.6693V28.3784C21.203 28.3299 22.0272 27.4572 22.0272 26.439C22.0272 25.9542 21.8333 25.5178 21.5424 25.1299C21.6878 24.8875 21.3485 22.3663 23.4333 20.136ZM10.1969 19.4087C8.83936 17.8572 8.0636 15.8693 8.0636 13.8329C8.0636 9.42082 11.6515 5.639 16.0636 5.44506C18.3909 5.34809 20.5727 6.17234 22.2697 7.77234C23.9666 9.37234 24.8878 11.5542 24.8878 13.8814C24.8878 15.9663 24.1121 18.0026 22.6575 19.5542C21.3969 20.9117 20.6697 22.7057 20.6212 24.5481H12.3303C12.2818 22.6572 11.506 20.8632 10.1969 19.4087ZM19.2151 28.6693C19.2151 30.1723 18.003 31.3845 16.5 31.3845C14.9969 31.3845 13.7848 30.1723 13.7848 28.6693V28.3784H19.2151V28.6693ZM20.0878 27.4087H12.9606C12.4272 27.4087 11.9909 26.9723 11.9909 26.439C11.9909 25.9057 12.4272 25.4693 12.9606 25.4693H20.0878C20.6212 25.4693 21.0575 25.9057 21.0575 26.439C21.106 26.9723 20.6697 27.4087 20.0878 27.4087ZM16.5 3.94203C16.7909 3.94203 16.9848 3.7481 16.9848 3.45719V1.8087C16.9848 1.51779 16.7909 1.32385 16.5 1.32385C16.2091 1.32385 16.0151 1.51779 16.0151 1.8087V3.45719C16.0151 3.7481 16.2091 3.94203 16.5 3.94203ZM10.5848 5.20264C10.7303 5.44506 11.0212 5.49355 11.2636 5.39658C11.506 5.25113 11.5545 4.96022 11.4575 4.71779L10.6333 3.26325C10.4878 3.02082 10.1969 2.97234 9.95451 3.06931C9.71209 3.21476 9.61512 3.50567 9.76057 3.7481L10.5848 5.20264ZM5.29997 8.5481L6.75451 9.37234C6.99694 9.51779 7.28785 9.42082 7.4333 9.1784C7.57876 8.93597 7.48179 8.64506 7.23936 8.49961L5.78482 7.67537C5.54239 7.52991 5.25148 7.62688 5.10603 7.86931C4.96057 8.11173 5.10603 8.40264 5.29997 8.5481ZM6.02724 14.4148C6.02724 14.1239 5.8333 13.9299 5.54239 13.9299H3.89391C3.603 13.9299 3.40906 14.1239 3.40906 14.4148C3.40906 14.7057 3.603 14.8996 3.89391 14.8996H5.54239C5.8333 14.8996 6.02724 14.7057 6.02724 14.4148ZM6.75451 19.5057L5.29997 20.3299C5.05754 20.4754 5.00906 20.7663 5.10603 21.0087C5.25148 21.2511 5.54239 21.2996 5.78482 21.2026L7.23936 20.3784C7.48179 20.2329 7.53027 19.942 7.4333 19.6996C7.28785 19.4572 6.99694 19.3602 6.75451 19.5057ZM27.7 20.3299L26.2454 19.5057C26.003 19.3602 25.7121 19.4572 25.5666 19.6996C25.4212 19.942 25.5182 20.2329 25.7606 20.3784L27.2151 21.2026C27.4575 21.3481 27.7485 21.2511 27.8939 21.0087C27.9909 20.7663 27.8939 20.4754 27.7 20.3299ZM29.106 13.9299H27.4575C27.1666 13.9299 26.9727 14.1239 26.9727 14.4148C26.9727 14.7057 27.1666 14.8996 27.4575 14.8996H29.106C29.3969 14.8996 29.5909 14.7057 29.5909 14.4148C29.5909 14.1239 29.3969 13.9299 29.106 13.9299ZM26.2454 9.37234L27.7 8.5481C27.9424 8.40264 27.9909 8.11173 27.8939 7.86931C27.7485 7.62688 27.4575 7.5784 27.2151 7.67537L25.7606 8.49961C25.5182 8.64506 25.4697 8.93597 25.5666 9.1784C25.7121 9.42082 26.003 9.51779 26.2454 9.37234ZM21.7363 5.34809C21.9788 5.49355 22.2697 5.39658 22.4151 5.15416L23.2394 3.69961C23.3848 3.45719 23.2878 3.16628 23.0454 3.02082C22.803 2.92385 22.5121 3.02082 22.3666 3.26325L21.5424 4.71779C21.3969 4.91173 21.4939 5.25113 21.7363 5.34809Z" fill="#453AFF"/>
</g>
<defs>
<clipPath id="clip0_1142_10054">
<rect width="32" height="32" fill="white" transform="translate(0.5 0.838989)"/>
</clipPath>
</defs>
</svg>
