<svg width="32" height="33" viewBox="0 0 32 33" fill="none" xmlns="http://www.w3.org/2000/svg">
<g clip-path="url(#clip0_1142_10023)">
<path d="M13.0424 19.942C13.4788 21.1541 15.0788 21.542 16 20.5723C16.7273 21.3481 17.8909 21.2996 18.6182 20.5723C18.7636 20.3784 18.9091 20.1844 18.9576 19.9905C20.0242 20.2329 21.0909 19.4087 21.0909 18.2935C22.0606 18.0996 22.6909 17.1299 22.497 16.1602C23.2727 15.5299 23.3697 14.4147 22.7394 13.6874C23.4182 12.7662 22.9818 11.4571 21.9636 11.0208C22.303 9.90563 21.4303 8.74199 20.2667 8.74199C20.1212 7.96623 19.4424 7.38441 18.6667 7.33593C17.9879 6.51169 16.7758 6.51169 16.0485 7.28744C15.3697 6.56017 14.1091 6.51169 13.4303 7.33593C12.6061 7.38441 11.9758 7.96623 11.8303 8.74199C10.6667 8.74199 9.79394 9.90563 10.1333 11.0208C9.64849 11.2147 9.30909 11.6026 9.11515 12.1359C8.92121 12.6693 9.01818 13.2511 9.35758 13.6874C8.72727 14.4147 8.82424 15.5299 9.6 16.1602C9.35758 17.1299 10.0364 18.0996 11.0061 18.2935C10.9091 19.3602 11.9758 20.1359 13.0424 19.942ZM17.9879 8.0632C18.0849 8.20866 18.2788 8.30563 18.4727 8.30563C19.0061 8.25714 19.3939 8.64502 19.3455 9.17835C19.1515 9.51775 18.8121 9.76017 18.5697 9.6632C18.3273 9.56623 18.0364 9.6632 17.9394 9.90563C17.8424 10.1481 17.9394 10.439 18.1818 10.5359C18.3273 10.5844 18.5212 10.6329 18.7152 10.6329C19.297 10.6329 19.8303 10.2935 20.1697 9.71169C20.8 9.56623 21.3333 10.342 20.9939 10.8753C20.3152 11.0208 19.7333 11.6026 19.7333 12.3784C19.7333 12.6693 19.9273 12.8632 20.2182 12.8632C20.5091 12.8632 20.703 12.6693 20.703 12.3784C20.703 11.0693 23.0303 12.3784 21.7697 13.2996C21.6242 13.3965 21.5758 13.542 21.5758 13.7359V13.7844C21.5273 14.1723 21.2364 14.4632 20.8485 14.4632C20.5576 14.4632 20.3636 14.6571 20.3636 14.9481C20.3636 15.239 20.5576 15.4329 20.8485 15.4329C21.3818 15.4329 21.8667 15.1905 22.2061 14.7541C22.2545 15.142 22.0606 15.4329 21.7697 15.5784C21.6727 15.6268 21.5758 15.7238 21.5273 15.8693C21.4788 16.0147 21.4788 16.1117 21.5758 16.2571C22.2061 17.4693 20.0242 17.8087 20.0242 16.839C20.0242 16.5481 19.8303 16.3541 19.5394 16.3541C19.2485 16.3541 19.0545 16.5481 19.0545 16.839C19.0545 17.5177 19.5394 18.0996 20.2182 18.2935C20.2182 18.9238 19.4909 19.3602 18.9576 18.9238C18.8121 18.8268 18.6182 18.7784 18.4242 18.8753C18.2788 18.9723 18.1818 19.1662 18.1818 19.3602C18.2788 20.4753 16.5818 20.5238 16.5818 19.4087V18.0511C16.5818 17.5177 17.0182 17.0329 17.6 17.0329C17.8909 17.0329 18.0849 16.839 18.0849 16.5481C18.0849 16.2571 17.8909 16.0632 17.6 16.0632C17.2121 16.0632 16.8727 16.1602 16.5818 16.3541V14.7541C16.9697 14.4632 17.503 14.5117 17.8424 14.8511C17.9394 14.9481 18.0849 14.9965 18.1818 14.9965C18.2788 14.9965 18.4242 14.9481 18.5212 14.8511C18.7152 14.6571 18.7152 14.3662 18.5212 14.1723C17.9879 13.639 17.2121 13.4935 16.5333 13.6874V12.2329C16.7273 12.2814 16.9212 12.3299 17.1152 12.3299C17.6 12.3299 18.1333 12.1359 18.5212 11.748C18.7152 11.5541 18.7152 11.2632 18.5212 11.0693C18.3273 10.8753 18.0364 10.8753 17.8424 11.0693C17.503 11.4087 16.9697 11.4571 16.5818 11.1662V8.54805C16.4849 7.67532 17.5515 7.33593 17.9879 8.0632ZM11.8788 18.1965C12.5576 18.0026 13.0424 17.4208 13.0424 16.742C13.0424 16.4511 12.8485 16.2571 12.5576 16.2571C12.2667 16.2571 12.0727 16.4511 12.0727 16.742C12.0727 17.6632 9.89091 17.3723 10.5212 16.1602C10.5697 16.0632 10.5697 15.9177 10.5697 15.7723C10.5212 15.6268 10.4242 15.5299 10.3273 15.4814C10.0364 15.3359 9.84243 15.045 9.89091 14.6571C10.1818 15.045 10.6667 15.3359 11.2485 15.3359C11.5394 15.3359 11.7333 15.142 11.7333 14.8511C11.7333 14.5602 11.5394 14.3662 11.2485 14.3662C10.8606 14.3662 10.5697 14.0753 10.5212 13.6874C10.5212 13.4935 10.4727 13.3481 10.3273 13.2511C9.98788 13.0087 9.9394 12.6208 10.0364 12.3299C10.2788 11.5056 11.3939 11.6511 11.3939 12.3299C11.3939 12.6208 11.5879 12.8147 11.8788 12.8147C12.1697 12.8147 12.3636 12.6208 12.3636 12.3299C12.3636 11.6026 11.8303 10.9723 11.103 10.8268C10.7636 10.245 11.297 9.51775 11.9273 9.6632C12.1212 10.0026 12.3636 10.245 12.6545 10.3905C12.897 10.5359 13.1394 10.5844 13.3818 10.5844C13.5758 10.5844 13.7212 10.5359 13.9152 10.4874C14.1576 10.3905 14.2545 10.0996 14.1576 9.85714C14.0606 9.61472 13.7697 9.51775 13.5273 9.61472C12.6545 10.0026 12.3636 8.16017 13.6242 8.30563C13.8182 8.30563 14.0121 8.25714 14.1091 8.0632C14.5455 7.33593 15.6121 7.67532 15.6121 8.45108V11.0693C15.2242 11.3602 14.6909 11.3117 14.3515 10.9723C14.1576 10.7784 13.8667 10.7784 13.6727 10.9723C13.4788 11.1662 13.4788 11.4571 13.6727 11.6511C14.0606 12.039 14.5455 12.2329 15.0788 12.2329C15.2727 12.2329 15.4667 12.1844 15.6606 12.1359V13.5905C14.9818 13.3965 14.2061 13.542 13.6727 14.0753C13.4788 14.2693 13.4788 14.5602 13.6727 14.7541C13.8667 14.9481 14.1576 14.9481 14.3515 14.7541C14.6909 14.4147 15.2242 14.3662 15.6121 14.6571V16.2571C15.3212 16.0632 14.9818 15.9662 14.5939 15.9662C14.303 15.9662 14.1091 16.1602 14.1091 16.4511C14.1091 16.742 14.303 16.9359 14.5939 16.9359C15.1273 16.9359 15.6121 17.3723 15.6121 17.9541V19.3117C15.6121 20.4268 13.9152 20.3299 14.0121 19.2632C14.0121 19.0693 13.9152 18.8753 13.7697 18.7784C13.6727 18.7299 13.6242 18.7299 13.5273 18.7299C13.4303 18.7299 13.3333 18.7784 13.2364 18.8268C12.6061 19.2632 11.8788 18.7784 11.8788 18.1965Z" fill="#E63946"/>
<path d="M22.9333 20.136C24.5333 18.3905 25.406 16.1602 25.406 13.7845C25.406 11.2148 24.3878 8.79052 22.4969 6.99658C20.606 5.20264 18.1818 4.28143 15.5636 4.42688C10.6181 4.66931 6.64239 8.839 6.64239 13.7845C6.64239 16.0632 7.46663 18.2935 9.01815 20.039C11.2485 22.5117 10.7636 24.7905 10.9575 25.1784C10.6666 25.5178 10.4727 25.9542 10.4727 26.439C10.4727 27.5057 11.2969 28.3299 12.3151 28.3784V28.6693C12.3151 30.7057 13.9636 32.3542 16 32.3542C18.0363 32.3542 19.6848 30.7057 19.6848 28.6693V28.3784C20.703 28.3299 21.5272 27.4572 21.5272 26.439C21.5272 25.9542 21.3333 25.5178 21.0424 25.1299C21.1878 24.8875 20.8485 22.3663 22.9333 20.136ZM9.69694 19.4087C8.33936 17.8572 7.5636 15.8693 7.5636 13.8329C7.5636 9.42082 11.1515 5.639 15.5636 5.44506C17.8909 5.34809 20.0727 6.17234 21.7697 7.77234C23.4666 9.37234 24.3878 11.5542 24.3878 13.8814C24.3878 15.9663 23.6121 18.0026 22.1575 19.5542C20.8969 20.9117 20.1697 22.7057 20.1212 24.5481H11.8303C11.7818 22.6572 11.006 20.8632 9.69694 19.4087ZM18.7151 28.6693C18.7151 30.1723 17.503 31.3845 16 31.3845C14.4969 31.3845 13.2848 30.1723 13.2848 28.6693V28.3784H18.7151V28.6693ZM19.5878 27.4087H12.4606C11.9272 27.4087 11.4909 26.9723 11.4909 26.439C11.4909 25.9057 11.9272 25.4693 12.4606 25.4693H19.5878C20.1212 25.4693 20.5575 25.9057 20.5575 26.439C20.606 26.9723 20.1697 27.4087 19.5878 27.4087ZM16 3.94203C16.2909 3.94203 16.4848 3.7481 16.4848 3.45719V1.8087C16.4848 1.51779 16.2909 1.32385 16 1.32385C15.7091 1.32385 15.5151 1.51779 15.5151 1.8087V3.45719C15.5151 3.7481 15.7091 3.94203 16 3.94203ZM10.0848 5.20264C10.2303 5.44506 10.5212 5.49355 10.7636 5.39658C11.006 5.25113 11.0545 4.96022 10.9575 4.71779L10.1333 3.26325C9.98785 3.02082 9.69694 2.97234 9.45451 3.06931C9.21209 3.21476 9.11512 3.50567 9.26057 3.7481L10.0848 5.20264ZM4.79997 8.5481L6.25451 9.37234C6.49694 9.51779 6.78785 9.42082 6.9333 9.1784C7.07876 8.93597 6.98179 8.64506 6.73936 8.49961L5.28482 7.67537C5.04239 7.52991 4.75148 7.62688 4.60603 7.86931C4.46057 8.11173 4.60603 8.40264 4.79997 8.5481ZM5.52724 14.4148C5.52724 14.1239 5.3333 13.9299 5.04239 13.9299H3.39391C3.103 13.9299 2.90906 14.1239 2.90906 14.4148C2.90906 14.7057 3.103 14.8996 3.39391 14.8996H5.04239C5.3333 14.8996 5.52724 14.7057 5.52724 14.4148ZM6.25451 19.5057L4.79997 20.3299C4.55754 20.4754 4.50906 20.7663 4.60603 21.0087C4.75148 21.2511 5.04239 21.2996 5.28482 21.2026L6.73936 20.3784C6.98179 20.2329 7.03027 19.942 6.9333 19.6996C6.78785 19.4572 6.49694 19.3602 6.25451 19.5057ZM27.2 20.3299L25.7454 19.5057C25.503 19.3602 25.2121 19.4572 25.0666 19.6996C24.9212 19.942 25.0182 20.2329 25.2606 20.3784L26.7151 21.2026C26.9575 21.3481 27.2485 21.2511 27.3939 21.0087C27.4909 20.7663 27.3939 20.4754 27.2 20.3299ZM28.606 13.9299H26.9575C26.6666 13.9299 26.4727 14.1239 26.4727 14.4148C26.4727 14.7057 26.6666 14.8996 26.9575 14.8996H28.606C28.8969 14.8996 29.0909 14.7057 29.0909 14.4148C29.0909 14.1239 28.8969 13.9299 28.606 13.9299ZM25.7454 9.37234L27.2 8.5481C27.4424 8.40264 27.4909 8.11173 27.3939 7.86931C27.2485 7.62688 26.9575 7.5784 26.7151 7.67537L25.2606 8.49961C25.0182 8.64506 24.9697 8.93597 25.0666 9.1784C25.2121 9.42082 25.503 9.51779 25.7454 9.37234ZM21.2363 5.34809C21.4788 5.49355 21.7697 5.39658 21.9151 5.15416L22.7394 3.69961C22.8848 3.45719 22.7878 3.16628 22.5454 3.02082C22.303 2.92385 22.0121 3.02082 21.8666 3.26325L21.0424 4.71779C20.8969 4.91173 20.9939 5.25113 21.2363 5.34809Z" fill="#E63946"/>
</g>
<defs>
<clipPath id="clip0_1142_10023">
<rect width="32" height="32" fill="white" transform="translate(0 0.838989)"/>
</clipPath>
</defs>
</svg>
