<svg width="27" height="32" viewBox="0 0 27 32" fill="none" xmlns="http://www.w3.org/2000/svg">
<path d="M10.5424 18.942C10.9788 20.1541 12.5788 20.542 13.5 19.5723C14.2273 20.3481 15.3909 20.2996 16.1182 19.5723C16.2636 19.3784 16.4091 19.1844 16.4576 18.9905C17.5242 19.2329 18.5909 18.4087 18.5909 17.2935C19.5606 17.0996 20.1909 16.1299 19.997 15.1602C20.7727 14.5299 20.8697 13.4147 20.2394 12.6874C20.9182 11.7662 20.4818 10.4571 19.4636 10.0208C19.803 8.90563 18.9303 7.74199 17.7667 7.74199C17.6212 6.96623 16.9424 6.38441 16.1667 6.33593C15.4879 5.51169 14.2758 5.51169 13.5485 6.28744C12.8697 5.56017 11.6091 5.51169 10.9303 6.33593C10.1061 6.38441 9.47576 6.96623 9.33031 7.74199C8.16667 7.74199 7.29394 8.90563 7.63334 10.0208C7.14849 10.2147 6.80909 10.6026 6.61515 11.1359C6.42121 11.6693 6.51818 12.2511 6.85758 12.6874C6.22727 13.4147 6.32424 14.5299 7.1 15.1602C6.85758 16.1299 7.53637 17.0996 8.50606 17.2935C8.40909 18.3602 9.47576 19.1359 10.5424 18.942ZM15.4879 7.0632C15.5849 7.20866 15.7788 7.30563 15.9727 7.30563C16.5061 7.25714 16.8939 7.64502 16.8455 8.17835C16.6515 8.51775 16.3121 8.76017 16.0697 8.6632C15.8273 8.56623 15.5364 8.6632 15.4394 8.90563C15.3424 9.14805 15.4394 9.43896 15.6818 9.53593C15.8273 9.58441 16.0212 9.6329 16.2152 9.6329C16.797 9.6329 17.3303 9.2935 17.6697 8.71169C18.3 8.56623 18.8333 9.34199 18.4939 9.87532C17.8152 10.0208 17.2333 10.6026 17.2333 11.3784C17.2333 11.6693 17.4273 11.8632 17.7182 11.8632C18.0091 11.8632 18.203 11.6693 18.203 11.3784C18.203 10.0693 20.5303 11.3784 19.2697 12.2996C19.1242 12.3965 19.0758 12.542 19.0758 12.7359V12.7844C19.0273 13.1723 18.7364 13.4632 18.3485 13.4632C18.0576 13.4632 17.8636 13.6571 17.8636 13.9481C17.8636 14.239 18.0576 14.4329 18.3485 14.4329C18.8818 14.4329 19.3667 14.1905 19.7061 13.7541C19.7545 14.142 19.5606 14.4329 19.2697 14.5784C19.1727 14.6268 19.0758 14.7238 19.0273 14.8693C18.9788 15.0147 18.9788 15.1117 19.0758 15.2571C19.7061 16.4693 17.5242 16.8087 17.5242 15.839C17.5242 15.5481 17.3303 15.3541 17.0394 15.3541C16.7485 15.3541 16.5545 15.5481 16.5545 15.839C16.5545 16.5177 17.0394 17.0996 17.7182 17.2935C17.7182 17.9238 16.9909 18.3602 16.4576 17.9238C16.3121 17.8268 16.1182 17.7784 15.9242 17.8753C15.7788 17.9723 15.6818 18.1662 15.6818 18.3602C15.7788 19.4753 14.0818 19.5238 14.0818 18.4087V17.0511C14.0818 16.5177 14.5182 16.0329 15.1 16.0329C15.3909 16.0329 15.5849 15.839 15.5849 15.5481C15.5849 15.2571 15.3909 15.0632 15.1 15.0632C14.7121 15.0632 14.3727 15.1602 14.0818 15.3541V13.7541C14.4697 13.4632 15.003 13.5117 15.3424 13.8511C15.4394 13.9481 15.5849 13.9965 15.6818 13.9965C15.7788 13.9965 15.9242 13.9481 16.0212 13.8511C16.2152 13.6571 16.2152 13.3662 16.0212 13.1723C15.4879 12.639 14.7121 12.4935 14.0333 12.6874V11.2329C14.2273 11.2814 14.4212 11.3299 14.6152 11.3299C15.1 11.3299 15.6333 11.1359 16.0212 10.748C16.2152 10.5541 16.2152 10.2632 16.0212 10.0693C15.8273 9.87532 15.5364 9.87532 15.3424 10.0693C15.003 10.4087 14.4697 10.4571 14.0818 10.1662V7.54805C13.9849 6.67532 15.0515 6.33593 15.4879 7.0632ZM9.37879 17.1965C10.0576 17.0026 10.5424 16.4208 10.5424 15.742C10.5424 15.4511 10.3485 15.2571 10.0576 15.2571C9.76667 15.2571 9.57273 15.4511 9.57273 15.742C9.57273 16.6632 7.39091 16.3723 8.02122 15.1602C8.0697 15.0632 8.0697 14.9177 8.0697 14.7723C8.02121 14.6268 7.92424 14.5299 7.82728 14.4814C7.53637 14.3359 7.34243 14.045 7.39091 13.6571C7.68182 14.045 8.16667 14.3359 8.74849 14.3359C9.0394 14.3359 9.23334 14.142 9.23334 13.8511C9.23334 13.5602 9.0394 13.3662 8.74849 13.3662C8.36061 13.3662 8.0697 13.0753 8.02122 12.6874C8.02122 12.4935 7.97273 12.3481 7.82728 12.2511C7.48788 12.0087 7.4394 11.6208 7.53637 11.3299C7.77879 10.5056 8.89394 10.6511 8.89394 11.3299C8.89394 11.6208 9.08788 11.8147 9.37879 11.8147C9.6697 11.8147 9.86364 11.6208 9.86364 11.3299C9.86364 10.6026 9.33031 9.97229 8.60303 9.82684C8.26364 9.24502 8.79697 8.51775 9.42728 8.6632C9.62122 9.0026 9.86364 9.24502 10.1545 9.39047C10.397 9.53593 10.6394 9.58441 10.8818 9.58441C11.0758 9.58441 11.2212 9.53593 11.4152 9.48744C11.6576 9.39047 11.7545 9.09957 11.6576 8.85714C11.5606 8.61472 11.2697 8.51775 11.0273 8.61472C10.1545 9.0026 9.86364 7.16017 11.1242 7.30563C11.3182 7.30563 11.5121 7.25714 11.6091 7.0632C12.0455 6.33593 13.1121 6.67532 13.1121 7.45108V10.0693C12.7242 10.3602 12.1909 10.3117 11.8515 9.97229C11.6576 9.77835 11.3667 9.77835 11.1727 9.97229C10.9788 10.1662 10.9788 10.4571 11.1727 10.6511C11.5606 11.039 12.0455 11.2329 12.5788 11.2329C12.7727 11.2329 12.9667 11.1844 13.1606 11.1359V12.5905C12.4818 12.3965 11.7061 12.542 11.1727 13.0753C10.9788 13.2693 10.9788 13.5602 11.1727 13.7541C11.3667 13.9481 11.6576 13.9481 11.8515 13.7541C12.1909 13.4147 12.7242 13.3662 13.1121 13.6571V15.2571C12.8212 15.0632 12.4818 14.9662 12.0939 14.9662C11.803 14.9662 11.6091 15.1602 11.6091 15.4511C11.6091 15.742 11.803 15.9359 12.0939 15.9359C12.6273 15.9359 13.1121 16.3723 13.1121 16.9541V18.3117C13.1121 19.4268 11.4152 19.3299 11.5121 18.2632C11.5121 18.0693 11.4152 17.8753 11.2697 17.7784C11.1727 17.7299 11.1242 17.7299 11.0273 17.7299C10.9303 17.7299 10.8333 17.7784 10.7364 17.8268C10.1061 18.2632 9.37879 17.7784 9.37879 17.1965Z" fill="#F4A261"/>
<path d="M20.4333 19.136C22.0333 17.3905 22.906 15.1602 22.906 12.7845C22.906 10.2148 21.8878 7.79052 19.9969 5.99658C18.106 4.20264 15.6818 3.28143 13.0636 3.42688C8.11815 3.66931 4.14239 7.839 4.14239 12.7845C4.14239 15.0632 4.96663 17.2935 6.51815 19.039C8.74845 21.5117 8.2636 23.7905 8.45754 24.1784C8.16663 24.5178 7.9727 24.9542 7.9727 25.439C7.9727 26.5057 8.79694 27.3299 9.81512 27.3784V27.6693C9.81512 29.7057 11.4636 31.3542 13.5 31.3542C15.5363 31.3542 17.1848 29.7057 17.1848 27.6693V27.3784C18.203 27.3299 19.0272 26.4572 19.0272 25.439C19.0272 24.9542 18.8333 24.5178 18.5424 24.1299C18.6878 23.8875 18.3485 21.3663 20.4333 19.136ZM7.19694 18.4087C5.83936 16.8572 5.0636 14.8693 5.0636 12.8329C5.0636 8.42082 8.65148 4.639 13.0636 4.44506C15.3909 4.34809 17.5727 5.17234 19.2697 6.77234C20.9666 8.37234 21.8878 10.5542 21.8878 12.8814C21.8878 14.9663 21.1121 17.0026 19.6575 18.5542C18.3969 19.9117 17.6697 21.7057 17.6212 23.5481H9.33027C9.28179 21.6572 8.50603 19.8632 7.19694 18.4087ZM16.2151 27.6693C16.2151 29.1723 15.003 30.3845 13.5 30.3845C11.9969 30.3845 10.7848 29.1723 10.7848 27.6693V27.3784H16.2151V27.6693ZM17.0878 26.4087H9.96057C9.42724 26.4087 8.99088 25.9723 8.99088 25.439C8.99088 24.9057 9.42724 24.4693 9.96057 24.4693H17.0878C17.6212 24.4693 18.0575 24.9057 18.0575 25.439C18.106 25.9723 17.6697 26.4087 17.0878 26.4087ZM13.5 2.94203C13.7909 2.94203 13.9848 2.7481 13.9848 2.45719V0.808701C13.9848 0.517792 13.7909 0.323853 13.5 0.323853C13.2091 0.323853 13.0151 0.517792 13.0151 0.808701V2.45719C13.0151 2.7481 13.2091 2.94203 13.5 2.94203ZM7.58482 4.20264C7.73027 4.44506 8.02118 4.49355 8.2636 4.39658C8.50603 4.25113 8.55451 3.96022 8.45754 3.71779L7.6333 2.26325C7.48785 2.02082 7.19694 1.97234 6.95451 2.06931C6.71209 2.21476 6.61512 2.50567 6.76057 2.7481L7.58482 4.20264ZM2.29997 7.5481L3.75451 8.37234C3.99694 8.51779 4.28785 8.42082 4.4333 8.1784C4.57876 7.93597 4.48179 7.64506 4.23936 7.49961L2.78482 6.67537C2.54239 6.52991 2.25148 6.62688 2.10603 6.86931C1.96057 7.11173 2.10603 7.40264 2.29997 7.5481ZM3.02724 13.4148C3.02724 13.1239 2.8333 12.9299 2.54239 12.9299H0.893906C0.602997 12.9299 0.409058 13.1239 0.409058 13.4148C0.409058 13.7057 0.602997 13.8996 0.893906 13.8996H2.54239C2.8333 13.8996 3.02724 13.7057 3.02724 13.4148ZM3.75451 18.5057L2.29997 19.3299C2.05754 19.4754 2.00906 19.7663 2.10603 20.0087C2.25148 20.2511 2.54239 20.2996 2.78482 20.2026L4.23936 19.3784C4.48179 19.2329 4.53027 18.942 4.4333 18.6996C4.28785 18.4572 3.99694 18.3602 3.75451 18.5057ZM24.7 19.3299L23.2454 18.5057C23.003 18.3602 22.7121 18.4572 22.5666 18.6996C22.4212 18.942 22.5182 19.2329 22.7606 19.3784L24.2151 20.2026C24.4575 20.3481 24.7485 20.2511 24.8939 20.0087C24.9909 19.7663 24.8939 19.4754 24.7 19.3299ZM26.106 12.9299H24.4575C24.1666 12.9299 23.9727 13.1239 23.9727 13.4148C23.9727 13.7057 24.1666 13.8996 24.4575 13.8996H26.106C26.3969 13.8996 26.5909 13.7057 26.5909 13.4148C26.5909 13.1239 26.3969 12.9299 26.106 12.9299ZM23.2454 8.37234L24.7 7.5481C24.9424 7.40264 24.9909 7.11173 24.8939 6.86931C24.7485 6.62688 24.4575 6.5784 24.2151 6.67537L22.7606 7.49961C22.5182 7.64506 22.4697 7.93597 22.5666 8.1784C22.7121 8.42082 23.003 8.51779 23.2454 8.37234ZM18.7363 4.34809C18.9788 4.49355 19.2697 4.39658 19.4151 4.15416L20.2394 2.69961C20.3848 2.45719 20.2878 2.16628 20.0454 2.02082C19.803 1.92385 19.5121 2.02082 19.3666 2.26325L18.5424 3.71779C18.3969 3.91173 18.4939 4.25113 18.7363 4.34809Z" fill="#F4A261"/>
</svg>
